<svg width="64" height="64" viewBox="0 0 64 64" fill="none" xmlns="http://www.w3.org/2000/svg">
  <rect x="8" y="8" width="48" height="48" rx="14" fill="#0F172A"/>
  <path d="M35.1 20.2C36.7 18.3 37.7 15.8 37.4 13.3C35.1 13.4 32.5 14.9 30.9 16.8C29.5 18.5 28.3 21 28.7 23.4C31.2 23.6 33.5 22.3 35.1 20.2Z" fill="white"/>
  <path d="M41.6 33.9C41.6 28.7 45.8 26.3 46 26.2C43.6 22.8 39.8 22.3 38.5 22.3C35.3 22 32.2 24.2 30.6 24.2C28.9 24.2 26.4 22.4 23.7 22.4C18.8 22.5 14.2 25.2 11.7 29.5C6.6 38.2 10.4 50.9 15.3 57.8C17.7 61.2 20.5 64.9 24.2 64.8C27.7 64.7 29.1 62.6 33.4 62.6C37.6 62.6 38.8 64.8 42.7 64.7C46.6 64.6 49 61.3 51.4 57.9C54.2 53.8 55.3 49.8 55.4 49.6C55.3 49.6 41.7 44.5 41.6 33.9Z" fill="white"/>
</svg>
